<svg width="163" height="32" viewBox="0 0 163 32" fill="none" xmlns="http://www.w3.org/2000/svg">
<path d="M54.0409 30.0944C53.9166 29.8416 53.9373 29.5679 54.103 29.252L64.413 3.0536C64.5372 2.80089 64.6821 2.59029 64.827 2.44287C64.972 2.29545 65.179 2.19015 65.4067 2.12697C66.0692 2.00062 66.7317 1.93744 67.3942 1.93744C68.0567 1.93744 68.7192 2.00062 69.3817 2.12697C69.8164 2.23227 70.127 2.54817 70.2926 3.0536L80.6854 29.252C80.8097 29.5679 80.8304 29.8416 80.7269 30.0944C80.6233 30.3471 80.4163 30.4945 80.0851 30.5366C79.5054 30.6419 78.905 30.684 78.3253 30.663C77.7249 30.6419 77.1453 30.5787 76.5656 30.4734C76.1308 30.3681 75.8203 30.0522 75.6132 29.5468L65.9657 5.34912H68.7399L59.1545 29.5468C59.0716 29.7995 58.9681 30.0101 58.8232 30.1575C58.6783 30.305 58.492 30.4103 58.2435 30.4734C57.6639 30.5787 57.0635 30.6419 56.4631 30.663C55.8627 30.684 55.2623 30.6419 54.6826 30.5366C54.3721 30.4734 54.1444 30.326 54.0409 30.0944ZM63.0052 24.8084C61.5353 24.5556 60.0861 24.1555 58.6783 23.6501L60.3552 19.396C61.5146 19.8172 62.674 20.112 63.8333 20.3226C64.9927 20.5332 66.1727 20.6385 67.3942 20.6385C68.6157 20.6385 69.7957 20.5332 70.9551 20.3226C72.1145 20.112 73.2738 19.8172 74.4332 19.396L76.1929 23.6501C74.8058 24.1766 73.3566 24.5556 71.866 24.8084C70.3754 25.0611 68.8848 25.1874 67.4149 25.1874C65.9243 25.1874 64.4751 25.0611 63.0052 24.8084ZM83.6667 29.3783V1.28458C83.6667 0.63173 83.9358 0.273713 84.4741 0.168415C85.0331 0.0631157 85.592 0.0209961 86.1717 0.0209961C86.7514 0.0209961 87.3104 0.0631157 87.8694 0.168415C88.3455 0.273713 88.594 0.65279 88.594 1.28458V29.3783C88.594 29.9891 88.3455 30.3681 87.8694 30.4945C87.3311 30.5998 86.7721 30.6419 86.1924 30.6419C85.6127 30.6419 85.0331 30.5998 84.4741 30.4945C83.9151 30.3892 83.6667 30.0101 83.6667 29.3783ZM93.1279 29.3783V1.28458C93.1279 0.63173 93.397 0.273713 93.9353 0.168415C94.515 0.0631157 95.0947 0.0209961 95.6536 0.0209961C96.2126 0.0209961 96.7716 0.0631157 97.3306 0.168415C97.8067 0.273713 98.0552 0.65279 98.0552 1.28458V29.3783C98.0552 29.9891 97.8067 30.3681 97.3306 30.4945C96.7923 30.5998 96.254 30.6419 95.6743 30.6419C95.0947 30.6419 94.5357 30.5998 93.9353 30.4945C93.397 30.3892 93.1279 30.0101 93.1279 29.3783ZM100.374 29.7363C99.0489 28.894 97.9931 27.6936 97.2063 26.1141C96.4403 24.5346 96.047 22.6813 96.047 20.5332C96.047 18.3851 96.4403 16.5319 97.2063 14.9524C97.9724 13.3729 99.0282 12.1725 100.374 11.3301C101.699 10.4877 103.21 10.0665 104.887 10.0665C106.564 10.0665 108.055 10.4877 109.4 11.3301C110.725 12.1725 111.781 13.3729 112.568 14.9524C113.334 16.5319 113.727 18.3851 113.727 20.5332C113.727 22.6813 113.334 24.5346 112.568 26.1141C111.802 27.6936 110.746 28.894 109.4 29.7363C108.075 30.5787 106.564 30.9999 104.887 30.9999C103.21 30.9999 101.72 30.5787 100.374 29.7363ZM107.454 25.04C108.344 23.8186 108.8 22.3233 108.8 20.5543C108.8 18.7853 108.344 17.269 107.454 16.0686C106.543 14.8471 105.218 14.2574 103.438 14.2574C102.279 14.2574 101.285 14.5522 100.477 15.1209C99.67 15.7105 99.0489 16.4687 98.6556 17.4374C98.2415 18.4062 98.0552 19.4381 98.0552 20.5543C98.0552 21.6705 98.2622 22.7024 98.6556 23.6711C99.0696 24.6399 99.67 25.4191 100.477 25.9877C101.285 26.5774 102.279 26.8512 103.438 26.8512C105.218 26.8512 106.564 26.2615 107.454 25.04ZM121.015 29.7363C119.483 28.894 118.303 27.6936 117.433 26.1141C116.564 24.5346 116.149 22.6813 116.149 20.5332C116.149 18.3851 116.564 16.5319 117.412 14.9524C118.24 13.3729 119.4 12.1725 120.849 11.3301C122.298 10.4877 123.934 10.0665 125.735 10.0665C127.64 10.0665 129.337 10.4877 130.828 11.3301C132.318 12.1725 133.498 13.3729 134.347 14.9524C135.196 16.5319 135.631 18.3851 135.631 20.5332C135.631 20.9755 135.527 21.3546 135.32 21.6494C135.113 21.9653 134.844 22.1548 134.492 22.2391H119.193V18.7221H132.546L130.641 20.5332C130.641 18.7431 130.227 17.2479 129.42 16.0475C128.613 14.826 127.37 14.2363 125.735 14.2363C124.203 14.2363 123.064 14.8471 122.278 16.0686C121.491 17.29 121.097 18.7853 121.097 20.5332C121.097 22.3233 121.512 23.8186 122.34 25.019C123.168 26.2404 124.431 26.8301 126.128 26.8301C126.998 26.8301 127.722 26.7248 128.364 26.5142C128.985 26.3036 129.565 26.0088 130.124 25.5876C130.352 25.398 130.579 25.2927 130.786 25.2296C130.993 25.1874 131.221 25.2296 131.408 25.377C131.615 25.5244 131.801 25.6929 131.966 25.8614C132.132 26.0298 132.298 26.1983 132.484 26.3878C132.67 26.5774 132.815 26.7669 132.96 26.9775C133.105 27.1881 133.229 27.3987 133.312 27.6304C133.519 28.0937 133.457 28.4728 133.126 28.7465C132.298 29.4415 131.304 29.9891 130.165 30.3681C129.027 30.7472 127.722 30.9578 126.294 30.9578C124.286 30.9999 122.547 30.5787 121.015 29.7363ZM138.136 29.3783V11.7302C138.136 11.0774 138.405 10.7194 138.943 10.6141C139.523 10.5088 140.103 10.4666 140.662 10.4666C141.221 10.4666 141.78 10.5088 142.339 10.6141C142.815 10.7194 143.063 11.0984 143.063 11.7302V29.3783C143.063 30.0312 142.815 30.3892 142.339 30.4945C141.78 30.5787 141.221 30.6209 140.662 30.6209C140.103 30.6209 139.523 30.5787 138.943 30.4945C138.405 30.3681 138.136 29.9891 138.136 29.3783ZM147.991 10.1086C148.736 10.1086 149.357 10.235 149.895 10.4877C150.268 10.6351 150.516 10.9721 150.62 11.4986C150.64 11.7302 150.64 11.983 150.62 12.2357C150.599 12.4884 150.578 12.7622 150.537 13.0149C150.516 13.2887 150.475 13.5624 150.413 13.8362C150.351 14.0889 150.289 14.3416 150.247 14.5733C150.144 14.8471 149.978 15.0366 149.771 15.1209C149.564 15.2051 149.295 15.184 148.984 15.0787C148.322 14.8892 147.701 14.805 147.08 14.805C145.982 14.805 145.051 15.2051 144.243 16.0264C143.436 16.8478 143.043 18.2377 143.043 20.2173H142.214C142.214 13.4782 144.14 10.1086 147.991 10.1086ZM154.119 29.61C153.104 28.7255 152.587 27.2934 152.587 25.3138V6.54953C152.587 6.02303 152.773 5.64396 153.166 5.34912C153.746 4.88581 154.305 4.54885 154.802 4.33825C155.05 4.19083 155.34 4.04341 155.63 3.93812C155.94 3.81176 156.23 3.72752 156.499 3.64328C156.831 3.53798 157.079 3.5801 157.265 3.76964C157.452 3.95918 157.535 4.21189 157.535 4.48567V24.9558C157.535 26.2194 158.197 26.8512 159.543 26.8512C160.205 26.8512 160.93 26.7669 161.717 26.5774C162.048 26.4931 162.317 26.5142 162.524 26.6195C162.731 26.7248 162.876 26.8933 162.938 27.1671C162.979 27.5883 163 28.0094 163 28.4306C162.979 28.8518 162.938 29.273 162.876 29.6942C162.752 30.1154 162.483 30.3892 162.068 30.5366C161.53 30.7262 160.951 30.8525 160.309 30.9157C159.667 30.9999 159.046 31.021 158.445 30.9999C156.582 30.9578 155.133 30.4734 154.119 29.61ZM155.858 10.8457H161.447C162.006 10.8457 162.338 11.1195 162.483 11.6671C162.586 12.1304 162.627 12.5937 162.627 13.0359C162.627 13.4782 162.586 13.9415 162.483 14.3627C162.379 14.8892 162.048 15.1419 161.447 15.1419H155.858V10.8457Z" fill="#333333"/>
<path d="M37.8096 29.7785C37.4163 29.7785 37.0436 29.6732 36.7124 29.4415L22.4274 19.6487L24.6219 16.3213L36.2569 24.3029C36.8366 18.68 36.8159 12.9938 36.1948 7.37086L3.81549 22.934L2.11786 19.3118L36.9608 2.56923C37.5198 2.29545 38.1823 2.31651 38.7412 2.61135C39.3002 2.92725 39.6729 3.4748 39.7557 4.1066L39.9006 5.20171C40.8943 12.8043 40.8322 20.4911 39.7557 28.0726C39.6522 28.7465 39.2174 29.3362 38.5963 29.61C38.3479 29.7364 38.0788 29.7785 37.8096 29.7785Z" fill="#333333"/>
<path d="M3.79481 29.7788C3.46357 29.7788 3.15302 29.6946 2.86318 29.5261C2.30421 29.2102 1.93156 28.6627 1.84874 28.0309L1.70382 26.9568C0.710086 19.3542 0.772194 11.6674 1.84874 4.08589C1.95226 3.41197 2.38702 2.8223 3.0081 2.54852C3.62919 2.27474 4.33309 2.33792 4.91277 2.717L19.1978 12.5098L16.9825 15.8372L5.34753 7.85559C4.76785 13.4785 4.78855 19.1647 5.40964 24.7877L37.7889 9.22447L39.4659 12.8468L4.64363 29.5893C4.3745 29.7156 4.08465 29.7788 3.79481 29.7788Z" fill="#333333"/>
</svg>
