<svg width="41" height="41" viewBox="0 0 41 41" fill="none" xmlns="http://www.w3.org/2000/svg">
<path d="M26.2908 13.7259C24.8624 13.3718 23.5638 12.8877 22.3596 11.8725C21.8402 11.4003 21.1791 11.1523 20.5062 11.1523C19.8333 11.1523 19.1604 11.4003 18.6291 11.8961C17.5076 12.8759 16.2326 13.4308 14.6743 13.8086C13.3757 14.1273 12.4785 15.2606 12.4785 16.5828V22.0723C12.4785 24.6459 14.1431 26.8299 16.3625 28.4827C17.2833 29.1674 18.2396 29.7577 19.1604 30.1827H19.1722C19.9986 30.5604 21.0256 30.525 21.8166 30.1827H21.8284C22.761 29.7577 23.6346 29.2264 24.6263 28.4827H24.6381C26.8457 26.8299 28.5221 24.6459 28.5221 22.0723V16.512C28.5221 15.178 27.5894 14.0447 26.2908 13.7259ZM25.854 22.0723C25.854 23.6661 24.6499 25.1417 23.0325 26.3459C22.1708 26.9834 21.5096 27.3848 20.7659 27.7389C20.6951 27.7625 20.6006 27.7862 20.5062 27.7862C20.3999 27.7862 20.3291 27.7744 20.2819 27.7507H20.2583C19.5145 27.4202 17.9562 26.3459 17.9562 26.3459C17.1535 25.7438 16.4451 25.0709 15.9493 24.3508C15.4417 23.6307 15.1465 22.8751 15.1465 22.0723V16.5828C15.1465 16.5002 15.1938 16.4294 15.3 16.4057H15.3118C17.1062 15.9571 18.9479 15.1662 20.4117 13.8794H20.4236L20.4354 13.8676C20.4708 13.8204 20.5416 13.8204 20.5888 13.8676H20.6006C22.1826 15.2488 24.0478 15.9335 25.6888 16.3349C25.8068 16.3585 25.854 16.4294 25.854 16.512V22.0723Z" fill="white"/>
<circle cx="20.5" cy="20.8047" r="18.8235" stroke="white" stroke-width="2.35294"/>
</svg>
